<svg width="300" height="300" viewBox="0 0 300 300" fill="none" xmlns="http://www.w3.org/2000/svg">
    <defs>
        <linearGradient id="cloudGradient" x1="30" y1="0" x2="270" y2="167" gradientUnits="userSpaceOnUse">
            <stop offset="0.259336" stop-color="hsl(195, 100%, 72%)"/>
            <stop offset="1" stop-color="hsl(180, 100%, 68%)"/>
        </linearGradient>
    </defs>
    <path opacity="0.15" d="M270 140C270 171.48 244.48 197 213 197H87C55.52 197 30 171.48 30 140C30 114.61 47.61 93.37 71.28 87.31C70.44 84.31 70 81.2 70 78C70 51.49 91.49 30 118 30C138.21 30 155.70 42.29 163.03 59.52C168.15 57.48 173.78 56.33 179.67 56.33C211.15 56.33 236.67 81.85 236.67 113.33C236.67 119.04 235.74 124.53 234.02 129.67C255.09 131.63 270 144.21 270 140Z" fill="url(#cloudGradient)"/>
    <path d="M270 140C270 171.48 244.48 197 213 197H87C55.52 197 30 171.48 30 140C30 114.61 47.61 93.37 71.28 87.31C70.44 84.31 70 81.2 70 78C70 51.49 91.49 30 118 30C138.21 30 155.70 42.29 163.03 59.52C168.15 57.48 173.78 56.33 179.67 56.33C211.15 56.33 236.67 81.85 236.67 113.33C236.67 119.04 235.74 124.53 234.02 129.67C255.09 131.63 270 144.21 270 140Z" stroke="url(#cloudGradient)" stroke-width="8" stroke-dasharray="250 30 300 30" stroke-dashoffset="0"/>
</svg>
